<svg width="72" height="73" viewBox="0 0 72 73" fill="none" xmlns="http://www.w3.org/2000/svg">
<g id="T_emotes12" opacity="0.5">
<path id="Vector" d="M21.2856 11.4342C20.2245 10.6257 19.416 9.41293 19.1128 8.0991C19.0117 7.74538 19.0117 7.39166 19.0622 7.08847C19.1633 6.68422 19.4665 6.38103 19.7697 6.07784C20.5276 5.37039 21.4372 4.81455 22.4479 4.4103C23.408 5.72412 24.0649 7.29062 24.3681 8.90763C24.6207 10.5246 24.5702 12.3943 25.6819 13.6071C26.3388 12.5459 27.3494 11.6869 28.5117 11.1816C29.2191 10.8784 30.0782 10.6257 30.2803 9.86771C30.4824 9.10974 29.876 8.40231 29.3707 7.79593C28.4611 6.6337 27.9053 5.16827 27.8547 3.65232C27.8042 2.94488 27.9053 2.23744 28.3095 1.63106C28.8654 0.873082 29.8255 0.569911 30.7856 0.418316C31.4425 0.317253 32.2005 0.266709 32.7058 0.721494C33.009 0.974152 33.1606 1.37841 33.3122 1.73213C34.0196 3.55127 34.7271 5.37041 34.8787 7.29061C36.8999 7.18955 38.9212 7.13901 40.9425 7.03795C42.5089 6.98742 44.3786 6.98741 45.3892 8.20017C45.9451 8.85709 46.1472 9.66559 46.2988 10.4741C46.5009 11.3331 46.7031 12.1416 46.9052 13.0007C47.5116 13.0007 48.0169 13.6071 48.3706 14.1124C49.0275 14.9714 49.735 15.881 50.3919 16.74C51.0488 17.5485 51.6552 18.4076 51.9584 19.4182C52.1605 20.1257 52.1605 20.9342 52.1605 21.6921C52.1605 22.6522 52.1605 23.5618 52.1099 24.5219C52.0594 25.9873 51.8068 27.4022 51.8573 28.8676C51.9078 30.0299 51.9078 31.3437 51.0993 32.2027C50.3919 32.9607 49.2296 33.1123 48.1685 33.0618C47.8148 33.0618 47.4105 32.9607 47.2084 32.6575C47.0568 32.4554 47.0568 32.2027 47.0568 31.9501C47.0062 30.9394 46.9557 29.8783 47.1578 28.8676C47.3094 28.1097 47.5621 27.4022 47.7137 26.6948C47.8653 25.9873 47.8653 25.2799 47.8653 24.5724C47.8653 23.6629 47.9158 22.7533 47.9158 21.8437C47.9158 21.2879 47.9158 20.7826 47.7642 20.2773C47.6126 19.8225 47.2589 19.4182 46.9052 19.014C45.8946 17.8517 44.8839 16.74 43.8733 15.6283C44.7829 19.7214 41.7004 23.9661 42.8121 27.9581C43.3174 29.7772 44.227 31.6974 44.1765 33.6176C44.0249 38.317 43.5701 43.067 41.852 47.4128C41.0435 49.3835 42.7616 51.4553 43.1659 53.5271C43.368 54.4872 43.368 55.4473 43.3174 56.4074C43.3174 57.3675 43.3174 58.3276 43.0648 59.2877C42.3573 61.9659 42.7616 64.543 42.8627 67.3222C42.9132 68.2318 42.9637 69.0908 42.7616 69.9499C42.5595 70.8089 42.0542 71.668 41.2962 72.0722C40.6393 72.3754 39.9318 72.3754 39.2244 72.3249C39.0728 72.3249 38.9212 72.3249 38.8201 72.2238C38.6685 72.1227 38.618 71.9206 38.5675 71.769C38.4159 70.9605 38.3653 70.152 38.5169 69.3435C38.6685 68.636 38.9212 67.9286 39.0728 67.2211C39.5781 65.3515 39.5781 63.3808 39.5781 61.4606C39.5781 60.6015 39.5781 59.6919 39.2749 58.8329C38.7696 57.2664 37.2536 55.9526 37.4558 54.2851C37.6074 52.9712 36.7989 52.0111 36.5462 50.7478C36.3946 50.0404 36.243 49.2824 36.1925 48.575C36.1419 47.7159 36.243 46.8064 36.2935 45.9473C36.4957 43.7745 36.4451 41.5511 36.243 39.3277C36.3946 41.1468 36.142 43.0165 35.485 44.7346C35.1313 45.6441 34.727 46.5032 34.4239 47.4128C34.0196 48.7771 34.0702 50.192 34.0702 51.5563C34.0702 52.9207 34.3228 54.184 34.3228 55.5483C34.3228 56.559 34.2217 57.6201 33.6154 58.4792C33.868 60.551 33.9185 62.6228 34.1712 64.6946C34.2217 65.3515 34.3228 66.0084 34.2723 66.6653C34.2217 67.3728 34.0701 68.0802 33.767 68.7876C33.4638 69.4951 33.009 70.2025 32.4026 70.6068C31.7457 71.0616 30.8867 71.2132 30.1792 70.91C30.0276 70.8089 29.8255 70.7078 29.7244 70.5563C29.4718 70.2025 29.6234 69.6972 29.775 69.293C30.7856 66.5137 31.2404 63.4313 30.4824 60.551C29.9771 58.6308 28.9665 56.7611 29.1686 54.7904C29.3707 53.1734 28.7643 51.7079 28.7643 50.0909C28.7643 45.6441 27.8042 41.3995 28.2085 36.9527C28.3601 35.083 28.9159 33.2639 29.8255 31.5963C31.4425 28.6655 30.735 25.381 30.634 22.0459C30.9877 22.6522 30.2298 23.4102 29.5223 23.4607C28.0569 23.5618 26.9452 22.2985 26.0356 21.1363C25.8335 20.8331 25.5808 20.5804 25.3787 20.2773C25.2776 20.1762 25.1766 20.0246 25.0755 19.9235C24.3175 18.9129 23.6606 17.8012 23.1048 16.639C22.7005 15.1735 21.7404 13.0512 21.2856 11.4342Z" fill="white"/>
</g>
</svg>
