<svg width="72" height="73" viewBox="0 0 72 73" fill="none" xmlns="http://www.w3.org/2000/svg">
<g id="T_emotes7" opacity="0.5">
<path id="Vector" d="M22.2693 21.9864C21.8591 21.0747 21.2209 20.4821 20.5371 19.7528C19.1696 18.2485 19.124 15.6958 20.446 14.1459C20.993 13.5078 21.7679 13.0063 22.4973 12.5505C23.4545 11.9579 24.3662 11.4109 25.3235 10.8183C25.597 10.2257 25.7337 9.45078 25.8249 8.76702C25.8705 8.35677 25.9161 7.94651 25.9161 7.53626C25.8705 6.07757 24.8676 4.16304 25.6881 2.93227C26.8733 1.20008 29.2437 0.425152 31.2038 1.1545C32.9816 1.79267 34.2579 3.52486 34.5314 5.39381C34.7594 7.26275 34.0756 9.17728 32.7537 10.5904C33.8933 10.4536 35.1696 10.3625 36.1725 10.9551C36.5371 11.183 36.9018 11.5021 37.1753 11.8212C38.4517 13.1431 39.5457 14.6474 40.0471 16.4251C41.1867 16.1516 41.7793 15.24 42.6454 14.4194C44.2864 12.824 46.6112 11.73 48.8448 12.277C48.9816 12.3226 49.1639 12.3682 49.2551 12.5049C49.483 12.7784 49.2551 13.1887 48.9816 13.4622C47.5229 15.0576 45.5172 16.0149 43.785 17.3368C42.7366 18.1573 41.7337 19.2058 41.1411 20.3909C38.2693 23.2627 35.0329 25.861 31.5685 28.0035C30.9759 28.3681 30.4289 28.6872 29.7907 28.9152C29.2437 28.8696 28.6055 28.7784 28.2864 28.3681C28.1497 28.1858 28.0585 27.9579 27.9218 27.7756C27.6938 27.5021 27.3747 27.3197 27.0557 27.1374C24.9588 25.9978 23.2722 24.1744 22.2693 21.9864Z" fill="white"/>
<path id="Vector_2" d="M52.446 52.2538C52.3092 52.9831 51.9901 53.6669 51.6254 54.3051C50.4403 56.4931 49.3007 58.6811 48.1155 60.8692C47.3861 62.1911 46.6568 63.6498 46.7024 65.1541C46.748 66.4304 47.295 67.6156 48.0699 68.5729C48.8448 69.5757 49.8021 70.3962 50.7593 71.2167C51.124 71.5358 50.9417 71.9917 50.577 72.3107C50.2123 72.6298 49.7565 72.7666 49.3007 72.8577C48.9816 72.9489 48.6625 72.9945 48.3434 72.9945C48.0699 72.9945 47.7964 72.9033 47.5229 72.7666C45.6539 72.0828 43.9217 70.9888 42.4175 69.6669C42.4175 67.7523 42.6454 66.0657 43.1468 64.1968C43.5571 62.6013 43.9217 61.0515 44.332 59.4561C44.7878 57.6783 44.1952 56.0373 44.6967 54.3051C44.9246 53.3934 45.426 52.6185 45.9274 51.8435C46.7024 50.5672 44.9246 49.3364 44.1041 48.1056C42.5542 45.872 41.1411 43.5016 39.9104 41.0857C39.3633 40.9945 38.7708 41.0857 38.1782 41.1313C38.7252 42.4076 38.3605 43.8663 37.9958 45.1883C37.1297 48.288 36.218 51.4333 34.7594 54.3051C35.124 54.6241 35.0784 55.2623 35.0784 55.7637C35.0329 57.3592 33.8477 58.7723 32.389 59.4561C32.4802 60.2766 31.5229 60.778 30.9303 61.4162C29.5628 62.966 29.2893 65.1541 29.3349 67.2053C29.3349 68.117 29.3804 69.0287 29.1069 69.8948C28.7423 70.9888 27.8762 71.8549 26.7822 72.174C25.8705 72.4475 24.822 72.4475 23.8648 72.3563C23.728 72.3563 23.5913 72.3107 23.5001 72.2196C23.4089 72.1284 23.3634 71.9917 23.3634 71.9005C23.3178 71.3991 23.3634 70.8976 23.5913 70.4418C23.7736 70.0315 24.0927 69.7125 24.3206 69.3478C24.6853 68.8464 25.0044 68.2538 25.1867 67.6612C25.3691 67.0686 25.6881 66.7495 25.7793 66.1113C25.8705 65.382 25.5058 64.835 25.597 64.1056C25.6881 63.3763 25.9616 62.6469 26.5998 62.2823C26.691 60.6412 26.7822 59.0458 27.1924 57.4504C27.5571 56.174 28.0585 55.5358 28.879 54.5786C29.2437 54.1683 29.3804 53.6213 29.5628 53.0743C29.7451 52.4361 29.9275 51.7979 29.9275 51.1142C29.9275 49.6555 29.1069 48.1968 29.3804 46.7837C30.0642 43.1826 29.6995 39.3079 30.9759 35.8435C31.7964 33.6555 30.3833 31.6042 29.973 29.325C30.6568 29.0971 31.295 28.7324 31.842 28.3678C35.0784 26.3165 38.1326 23.9461 40.9132 21.2567C40.822 21.7125 40.7764 22.1227 40.822 22.6242C40.8676 23.08 41.0044 23.5814 41.0955 24.0373C41.597 25.9062 42.0984 27.7296 42.5998 29.5985C42.8277 30.4646 43.2836 31.2851 43.9217 31.9233C44.5599 32.5615 45.2893 33.0173 45.973 33.6099C48.3434 35.7524 49.3462 38.9888 50.2123 42.043C50.8961 44.4133 51.124 46.8749 51.9901 49.1996C52.2636 50.2025 52.6283 51.2509 52.446 52.2538Z" fill="white"/>
</g>
</svg>
