<svg width="72" height="73" viewBox="0 0 72 73" fill="none" xmlns="http://www.w3.org/2000/svg">
<g id="T_emotes6" opacity="0.5">
<path id="Vector" d="M33.7792 9.12339C33.4758 8.06153 33.2736 6.99968 33.1219 5.88725C32.8691 4.06692 33.0207 1.94316 34.5377 0.931864C35.195 0.527344 35.9535 0.375662 36.712 0.375662C38.0267 0.325097 39.4931 0.729629 40.1504 1.84206C40.6055 2.60053 40.6055 3.51069 40.6055 4.42086V8.21323C40.6055 8.71888 40.656 9.17396 40.8583 9.62904C41.5157 11.2977 42.6787 10.9437 43.7405 11.0449C45.4597 11.146 46.9767 12.4607 47.4318 14.0788C48.4431 14.281 49.4038 14.3821 50.4151 14.5844C51.2747 14.7361 52.1343 14.8878 52.8422 15.3935C53.5501 15.8485 53.9546 16.961 53.8029 17.8206C53.6007 18.6802 53.9546 19.8432 54.0558 20.7028C54.2075 22.1692 54.4097 23.7367 54.0052 25.1525C53.5501 26.72 52.8928 28.2875 52.2354 29.7539C51.5275 31.2203 51.3253 32.535 49.8589 33.1923C49.4544 33.3946 48.7464 33.6474 48.2914 33.5463C48.1902 33.6474 47.6846 33.4451 47.634 33.344C47.2295 32.8384 47.3812 32.0799 47.634 31.4731C47.8868 30.8663 48.6453 30.3101 48.5948 29.7033C48.5948 29.3999 47.5834 31.0686 47.6846 29.046C48.3925 27.6807 49.4038 26.9728 50.2128 25.6076C50.6679 24.7985 50.9713 23.2816 50.769 22.3714C50.5668 21.4107 49.606 20.6016 49.7577 19.5903C49.8083 19.3881 49.8589 19.0847 49.6566 18.9836C49.5555 18.933 49.4544 18.933 49.3532 18.933C48.1902 18.9836 46.9767 19.0847 45.8137 19.1352C46.0665 19.8937 45.5103 21.1073 44.853 21.6129C44.9035 22.9782 44.3473 24.4446 43.6899 25.6581C44.2967 27.9841 43.4877 30.5124 42.173 32.4844C43.0832 33.4957 44.145 34.6587 45.308 35.3666C46.3193 35.9734 47.1789 36.7824 47.9374 37.6926C48.8981 38.805 50.2128 39.8669 50.6679 41.3333C50.9713 42.2434 51.4769 42.7491 52.2354 43.3053C52.9939 43.9121 53.8029 44.4683 54.2075 45.2773C55.5727 45.9852 56.2301 47.755 55.4716 49.0697C54.8648 50.081 54.4097 51.2946 53.5501 52.053C53.1962 53.1149 52.0837 53.5194 51.2747 54.2779C50.5668 54.9352 50.1623 55.7948 49.7072 56.6544C48.8981 58.222 48.1397 59.7895 47.3306 61.4076C46.9261 62.166 46.5722 62.9751 46.5216 63.8347C46.471 65.0988 47.2801 66.3124 48.2914 67.0203C49.3027 67.7787 50.5668 68.1327 51.8309 68.4361C52.3366 68.5372 52.8928 68.7395 52.9939 69.2451C53.095 69.6497 52.8422 70.1047 52.4377 70.2564C51.8309 70.5093 51.2241 70.3576 50.6174 70.1553C47.2801 70.6104 43.4877 70.0542 40.4032 68.6889C40.0998 67.4248 39.847 66.2112 40.656 65.1999C40.5549 65.2505 40.6561 65.4528 40.5549 65.3516C41.01 64.1381 41.6168 62.9751 42.2741 61.9132C42.982 60.8008 43.7405 58.8287 43.9428 57.5646C44.145 56.1994 44.3473 54.8341 44.8024 53.57C45.2575 52.3059 46.0159 51.0923 47.1284 50.3338C46.9767 49.8787 47.5834 49.7776 47.6846 49.3225C47.8363 48.8169 47.3306 48.4124 46.8755 48.1595C46.1676 47.6539 45.5608 46.9965 44.9035 46.4403C43.4877 45.2773 41.819 44.5189 40.1504 43.8615C39.5942 43.6593 38.9874 43.4064 38.7346 42.9008C38.8357 45.0751 38.5829 47.5528 38.1278 49.6765C37.6727 51.6991 38.1278 53.7722 37.6222 55.7443C37.5716 56.0477 37.4705 56.3511 37.3188 56.6544C36.9648 57.3118 36.358 57.6657 35.7513 58.0197C34.4366 58.7782 33.0713 59.385 31.6555 59.7389C29.2284 60.3963 27.1047 62.0649 25.3854 63.8852C23.5651 65.8067 25.7394 69.8519 26.4979 72.0768C25.6888 71.9756 24.8292 72.2285 24.0202 72.3296C23.2111 72.4307 22.2504 72.3801 21.6436 71.8239C21.0368 71.2677 20.8852 70.307 20.7335 69.5991C20.6829 69.2451 20.6323 68.8912 20.6323 68.5372C20.7335 64.7954 22.6549 61.8626 24.6775 59.031C25.2843 58.1714 25.8911 57.3118 26.5484 56.4522C27.1046 55.6937 27.6609 54.9858 28.4193 54.4296C29.1273 53.924 30.088 53.6205 30.9476 53.8734C31.7061 53.3677 31.7566 51.9519 31.5544 51.0923C31.3521 50.2327 30.897 49.4237 30.5936 48.5641C30.2902 47.755 30.1385 46.946 29.9868 46.1369C29.4812 43.2547 29.4812 40.2714 29.8352 37.3892C30.0374 35.7711 30.088 34.0519 30.7959 32.5855C31.5544 30.9169 30.897 29.2482 30.9476 27.4279C30.9476 27.0234 30.9476 26.5683 30.8465 26.2143C30.6442 25.7087 30.2397 25.3042 29.8352 24.8997C28.0148 22.9782 26.953 20.3994 26.9024 17.77C25.5877 19.7421 23.11 20.8545 20.7335 20.5511C20.784 23.2816 21.0368 26.1638 21.8965 28.7426C22.0481 29.1977 22.2504 29.6022 22.5538 30.0067C24.273 32.1304 24.4753 35.1138 24.5258 37.8443C24.2224 38.0465 23.8685 37.7937 23.3628 37.6926C23.3123 37.8948 23.2617 38.7039 23.2111 38.9062C22.7561 39.1084 22.2504 38.7545 21.947 38.4005C21.3402 37.7937 20.6829 37.1364 20.0761 36.5296C19.8233 36.2768 19.5705 36.024 19.4188 35.7206C18.8626 34.8104 18.9131 33.698 19.0143 32.6867C19.1154 31.2709 18.8626 30.4112 18.2052 29.1977C17.3456 27.7313 16.9411 26.1132 15.8792 24.8491C15.8792 24.6469 15.5253 24.3434 15.5253 24.1412C15.3736 22.9276 15.2219 21.7646 15.4241 20.5511C15.677 19.0847 16.9917 17.4666 18.4075 16.9104C19.7727 16.3542 21.138 16.1519 22.5032 15.3935C22.7561 15.2418 22.9583 15.0395 23.11 14.7867C24.2225 12.8652 26.245 11.5 28.4193 11.1966C28.8744 11.146 29.2789 11.0954 29.734 11.0954C30.897 10.9943 32.06 10.7921 33.223 10.4381C33.6275 10.0841 33.9309 9.57848 33.7792 9.12339Z" fill="white"/>
</g>
</svg>
