<svg width="72" height="73" viewBox="0 0 72 73" fill="none" xmlns="http://www.w3.org/2000/svg">
<g id="T_emotes3" opacity="0.5">
<path id="Vector" d="M22.461 9.63798C23.3602 9.28831 24.4092 9.53808 25.3583 9.48812C27.0567 9.38822 28.6053 8.28925 30.3037 8.43911C30.4036 8.43911 30.5034 8.43911 30.6034 8.38916C30.6533 8.33921 30.6533 8.2393 30.6533 8.18935C30.7032 6.99048 30.5534 5.74166 30.7033 4.54279C30.8531 3.34392 31.4026 2.0951 32.4516 1.44571C32.9511 1.14599 33.5006 1.04608 34.0501 0.996131C35.6486 0.846273 37.347 1.44571 38.2461 2.74448C39.0454 3.8934 39.1453 5.39199 38.8456 6.74071C38.5459 8.08944 37.9464 9.38822 37.3969 10.637C37.347 10.7369 37.297 10.8868 37.347 11.0367C37.3969 11.1865 37.4969 11.2864 37.5968 11.3364C38.3461 11.9358 39.3451 12.0357 40.1443 12.5352C41.0435 13.1347 41.5431 14.1337 42.0426 15.1328C42.3423 15.7822 42.642 16.4316 42.9917 17.081C43.5411 18.2299 45.0397 18.6295 46.1887 19.129C47.3875 19.6286 48.6863 19.7784 49.9351 19.4787C50.6844 19.2789 51.4337 18.8793 52.183 18.6295C52.9323 18.3797 53.8315 18.2798 54.5308 18.6295C55.5798 19.179 55.8795 20.5777 56.0294 21.7765C56.0793 22.2261 56.1293 22.6757 55.8795 23.0254C55.6797 23.3251 55.2801 23.425 54.9304 23.4749C53.9813 23.6248 52.9822 23.5249 51.9832 23.6248C50.3347 23.8246 48.7362 24.6239 47.1377 24.3241C46.4884 24.1743 45.8889 23.8746 45.3395 23.6248C44.2405 23.0753 43.1915 22.5258 42.0925 21.9763C41.6429 21.7266 41.1434 21.4768 40.7438 21.1271C39.6948 20.178 39.2952 18.7294 38.9954 17.3307C39.2952 19.5287 38.4959 21.8764 36.8475 23.375C37.2471 24.7238 36.8974 26.1224 36.6976 27.5211C36.5478 28.9198 36.6976 30.5682 37.8965 31.4174C38.2461 31.6672 38.6458 31.8171 38.9954 31.9669C39.9945 32.4665 40.8937 33.2157 41.5431 34.1149C42.642 35.7134 43.741 37.5117 45.1396 38.8105C45.839 39.4599 46.6382 40.0593 46.938 40.9584C47.3376 42.2073 46.6382 43.556 45.6891 44.5051C45.2895 44.9547 44.8899 45.654 44.3903 45.9038C43.9907 46.1036 43.5412 46.2535 43.1915 46.5032C42.692 46.9028 42.4422 47.5023 42.1425 48.0018C40.9935 50.0499 38.8456 51.5984 38.446 53.9462C38.1962 55.4448 38.6458 57.0932 38.8456 58.6418C38.9455 59.2912 38.9455 60.0405 38.446 60.3901C38.1962 60.54 37.9464 60.5899 37.6467 60.6399C37.347 60.6898 36.9973 60.6898 36.6476 60.6898C36.3479 60.6898 36.0482 60.6898 35.7985 60.54C35.3988 60.2902 35.199 59.8406 35.0492 59.3911C34.5496 57.7426 34.1001 56.0942 33.8503 54.3958C33.7004 53.4966 34.15 52.6474 34.3998 51.7483C34.4997 51.3986 34.5996 51.0489 34.7994 50.7492C34.9992 50.3995 35.2989 50.0998 35.5986 49.8501C36.3479 49.1507 37.0972 48.4514 37.8465 47.752C38.1462 46.4033 38.446 45.0546 39.1953 43.8557C39.5449 43.2563 39.1453 42.6069 39.2452 41.9575C38.0963 41.1083 36.298 41.5579 35.2989 40.5089C35.1491 40.359 35.0492 40.2092 34.8494 40.1592C34.7494 40.1592 34.6496 40.1592 34.5496 40.1592C34.0501 40.2591 33.5506 40.359 33.101 40.4589C33.3008 41.7577 33.101 43.1064 33.0011 44.4551C32.9012 46.1535 32.8512 48.0018 32.8013 49.7002C32.7513 51.2487 32.7014 52.8472 32.3517 54.3458C32.002 55.8444 31.2527 57.343 30.1038 58.3421C29.5543 58.8416 29.0049 59.6908 28.6552 60.3402C28.3555 60.8397 28.2056 61.3392 28.0558 61.8887C27.3065 64.9858 28.2556 68.3826 30.4535 70.6804C30.8032 71.0301 31.1528 71.4797 30.953 71.9292C30.8531 72.0791 30.7033 72.179 30.5534 72.2789C29.2047 73.0782 27.5562 73.1781 26.1076 72.6286C24.659 72.0292 23.56 70.7803 23.1104 69.2817C23.0105 68.8821 23.1104 68.4825 23.2603 68.0829C23.56 67.1837 23.8597 66.2846 24.2094 65.3854C24.7089 63.8868 24.4591 62.2384 24.4092 60.6399C24.3592 59.8406 24.3093 59.0913 24.4092 58.2921C24.5091 57.5428 24.7589 56.7436 25.3084 56.1941C25.4083 55.1451 25.8578 54.2459 26.5572 53.4467C26.9568 52.9971 26.8069 52.3977 26.9068 51.7982C27.1566 50.3496 26.8569 48.851 26.1076 47.6022C25.5082 46.6531 25.0086 45.654 25.1585 44.5551C25.3583 43.1564 24.9587 41.7577 25.0086 40.3091C25.0086 39.36 25.0586 38.4109 25.3583 37.5117C25.8578 35.9632 25.3084 34.1649 25.3084 32.5664C25.3084 31.4674 25.2084 29.9189 25.2584 28.8199C25.3083 28.1206 25.3083 27.3213 24.8588 26.7718C23.9596 25.7228 23.6599 24.3741 23.4601 23.0254C23.3602 22.326 23.3102 21.5767 22.9606 20.9273C22.0614 19.2789 19.4639 19.129 18.7146 17.4306C18.3649 16.6813 18.4648 15.8821 18.6147 15.0828C18.9643 14.8331 19.2141 14.5833 19.4639 14.2336C20.4629 12.835 20.7626 10.2874 22.461 9.63798Z" fill="white"/>
</g>
</svg>
