<svg width="72" height="73" viewBox="0 0 72 73" fill="none" xmlns="http://www.w3.org/2000/svg">
<g id="T_emotes5" opacity="0.5">
<path id="Vector" d="M21.5815 20.4576C21.5299 19.0636 21.4783 17.618 21.4783 16.224C21.4783 15.9658 21.4783 15.656 21.5815 15.3979C21.6848 15.1397 21.8397 14.9332 21.9946 14.7783C22.5625 14.1071 23.2337 13.3843 24.0598 13.0745C24.0082 13.0745 24.2663 12.9196 24.2663 12.9196C24.4728 12.5066 24.5761 12.3001 24.9891 12.0419C25.712 11.6289 26.6929 11.5256 27.106 10.8028C27.4157 10.2865 27.2609 9.61527 27.106 9.04733C26.7962 7.91147 26.5381 6.67235 26.3832 5.53648C26.2283 4.34898 26.0734 3.05824 26.6929 1.97401C27.3125 0.941402 28.5 0.373457 29.7391 0.218566C30.8234 0.115305 31.9592 0.321814 32.7336 1.04464C33.0951 1.40605 33.3533 1.87072 33.5598 2.3354C34.3859 4.24572 34.7472 6.36257 34.5407 8.47941C35.5733 8.58267 36.6059 8.6343 37.6385 8.73756C37.9999 8.78919 38.3614 8.78919 38.7228 8.73756C39.0842 8.68593 39.4972 8.53106 39.8587 8.4278C40.9945 8.11801 42.2336 8.22126 43.2662 8.73756C46.0026 8.01474 48.3777 9.6669 50.9075 10.9577C52.3532 11.7321 54.4184 12.0935 54.8314 13.6941C54.9347 14.2104 54.6249 14.7267 54.1602 14.9848C53.7472 15.243 45.5896 15.3979 45.1249 15.1914C44.6602 14.9332 43.163 14.7783 42.7499 14.4685C41.3559 13.3326 47.1385 12.868 45.3314 12.9196C43.2146 12.9712 41.769 14.1587 40.0652 12.9196C41.2527 16.6886 42.5434 19.4767 42.3885 23.4006C42.2853 26.2402 41.4592 29.2348 42.5434 31.8679C43.163 33.3652 44.4021 34.6044 45.1249 36.05C45.538 36.8245 46.3641 37.5989 46.8287 38.3734C47.3967 39.3027 47.913 40.2837 48.326 41.3163C48.9972 42.9684 49.2554 44.7239 49.1521 46.4793C49.8749 46.8923 50.1331 47.8733 50.5978 48.5445C51.6304 50.145 53.5923 50.8162 54.7798 52.2619C55.451 53.088 55.864 54.1722 55.864 55.2564C57.1032 56.9086 57.9809 58.9222 58.3423 60.9358C58.807 63.5689 60.5624 66.1505 62.4211 68.0608C62.6792 68.3189 62.8342 68.732 62.7309 69.0934C62.576 69.6097 62.008 69.6613 61.5434 69.6613C60.7173 69.6613 59.7879 69.558 59.0651 69.1966C58.2906 68.7836 57.7227 68.0092 57.2064 67.2863C56.5869 66.4086 55.9156 65.5309 55.7091 64.4467C55.6059 63.9304 55.6059 63.4141 55.5027 62.8978C55.2961 61.6586 54.7281 60.5227 53.9021 59.645C52.3532 57.9929 49.7717 57.0635 49.1005 54.8951C48.326 54.2755 47.5516 53.5527 47.2418 52.5717C46.932 51.5907 46.4157 50.713 45.6929 50.0418C43.9375 48.4413 42.1304 46.6342 41.3559 44.3625C40.9429 43.0717 40.788 41.6777 39.9619 40.6451C39.7554 41.1614 39.1358 41.626 38.6195 41.8326C38.1548 42.0391 37.5869 42.0907 37.0706 42.1424C36.9157 42.3489 36.5027 42.5038 36.3478 42.6587C36.1412 42.8652 36.038 43.2266 35.9864 43.5364C35.5217 45.963 34.644 48.2864 33.4565 50.4032C33.5081 51.3842 33.3016 52.4168 33.2499 53.3978C33.2499 54.0173 33.1984 54.6369 32.8369 55.1532C33.5081 56.7537 33.4565 58.6124 32.8369 60.213C32.269 61.7619 32.4755 63.4657 32.1141 65.1179C31.856 66.357 32.0625 67.6477 31.8043 68.8869C31.6494 69.5064 31.4429 70.126 31.1847 70.6939C30.875 71.3135 30.4103 71.9847 29.6875 72.1396C29.1195 72.2945 28.5 72.0879 27.9837 71.8814C27.6223 71.7265 27.2609 71.4684 27.2092 71.107C27.1576 70.9004 27.2609 70.6939 27.3125 70.539C27.7255 69.4032 28.2935 68.3706 28.913 67.338C29.1712 66.8733 29.2228 66.3053 29.0163 65.789C28.4484 64.4983 28.6032 63.7238 28.5 62.588C28.3451 60.4711 28.6033 58.4059 28.6033 56.2891C28.6033 54.8434 28.0353 53.501 28.2935 52.0554C28.5516 50.3516 27.4674 48.3896 27.6739 46.6858C27.7255 46.2728 27.8288 45.9114 27.8804 45.4983C27.9837 45.0337 28.087 44.5174 28.1902 44.0527C28.5516 42.4005 27.9321 40.9032 28.5 39.3027C29.0679 37.7022 29.8424 36.2565 30.6684 34.7592C31.7527 32.7457 30.307 30.4223 29.6875 28.2022C29.0679 25.9821 27.8804 23.8652 25.9701 22.5229C26.1766 23.2457 26.125 23.9685 25.7636 24.6397C25.4022 25.3109 24.8859 25.9305 24.3696 26.4984C24.2147 26.7049 24.4212 28.5636 24.3696 28.925C24.3179 29.6995 23.9565 30.3707 23.9049 31.1451C23.6984 32.9006 24.4212 34.656 25.144 36.2049C25.2989 36.463 25.4022 36.7728 25.5571 37.031C26.0734 37.857 26.7445 38.6315 27.519 39.1994C27.519 39.5092 27.8804 39.5092 27.7772 39.819C27.7255 40.0255 27.4158 40.1288 27.2092 40.0772C27.0027 40.0255 26.7962 39.819 26.6413 39.6641C26.125 39.1478 25.6603 38.6315 25.144 38.1152C25.0408 39.0446 25.3505 39.8706 25.7636 40.6967C26.125 41.3679 26.6413 41.9358 26.6929 42.7103C26.6929 42.8136 26.6929 42.9685 26.6413 43.0201C26.4864 43.175 26.2283 42.9684 26.125 42.8136C24.9891 41.2646 23.9565 39.6125 23.0272 37.9087C22.6141 37.1342 22.2527 36.3598 21.8913 35.5337C21.4266 34.6044 21.0136 33.6234 20.6006 32.6424C20.2391 31.7647 19.981 30.8869 19.8777 29.9576C19.7228 28.7701 19.7745 27.8408 19.7228 26.6533C19.7228 25.9821 19.7228 25.2076 20.2391 24.743C20.394 24.2267 20.4457 24.0718 20.7038 23.6071C21.375 22.4196 21.6331 21.7484 21.5815 20.4576Z" fill="white"/>
</g>
</svg>
