<svg width="72" height="73" viewBox="0 0 72 73" fill="none" xmlns="http://www.w3.org/2000/svg">
<g id="T_emotes4" opacity="0.5">
<path id="Vector" d="M46.9882 1.95478C46.9444 1.38527 46.4187 0.947193 45.893 0.728152C45.3235 0.552919 44.754 0.596722 44.1845 0.64053C44.0093 0.64053 43.8778 0.684344 43.7464 0.728152C43.5712 0.815768 43.4836 0.991001 43.4398 1.16623C43.0017 2.26144 42.9579 3.44426 42.8702 4.58327C42.7826 5.94133 42.695 7.29939 42.6512 8.61364C41.9065 8.3946 40.9865 8.43841 40.2418 8.65745C40.4608 7.25558 40.5484 6.02895 40.4608 4.62708C40.417 3.61949 40.2418 2.56809 39.497 1.91097C38.6208 1.16623 37.3066 1.34146 36.1676 1.56051C35.8609 1.60431 35.5105 1.69194 35.2476 1.86717C34.9848 2.08621 34.8533 2.43668 34.7219 2.74333C33.9772 4.93375 33.7143 7.25557 33.9772 9.57741C34.021 10.0155 34.1086 10.4536 33.9772 10.8917C33.7143 11.7678 32.7067 12.2059 31.9182 12.6878C29.9906 13.8268 28.6764 16.0172 28.5888 18.2515C28.4135 22.5009 28.4135 26.7064 28.8078 30.9558C28.4573 31.2625 28.4573 31.613 28.2383 32.0072C26.6612 34.8986 26.1355 38.2718 25.6536 41.5136C25.4346 42.8279 24.9527 44.0545 24.4708 45.325C24.3394 45.7192 24.1641 46.1135 24.1641 46.5078C24.1641 47.4278 24.8212 48.2163 25.4784 48.8734C25.6974 49.9248 26.5736 50.5819 27.1869 51.4581C27.8002 52.3781 28.2383 53.4295 28.4573 54.4809C28.7202 55.8827 30.1659 57.0217 30.5601 58.4236C30.9982 59.9131 30.8668 61.534 31.3049 63.0235C31.962 63.4616 32.2248 64.9072 32.181 65.6958C32.1372 66.5281 32.1372 67.4043 31.7868 68.149C31.5677 68.5871 31.2611 69.0252 30.9982 69.4195C30.4287 70.2957 30.0782 71.3032 29.9906 72.3108C30.5163 72.7051 31.3049 72.6613 31.9182 72.3985C32.5315 72.1356 33.0572 71.6537 33.5391 71.2156C34.5905 70.2518 35.6419 69.2443 36.6933 68.2805C37.1752 67.7986 37.7009 67.3605 38.0513 66.7472C38.4018 66.1339 38.6208 65.4767 38.4456 64.8196C38.0513 63.1987 36.2552 62.1473 34.941 61.1397C34.8971 60.0007 34.7657 58.7741 34.7657 57.6351C34.7219 56.3646 34.6781 55.0942 34.3714 53.8676C34.0648 52.6409 33.3639 51.4581 32.3125 50.7572C32.1372 50.6257 32.0058 50.4067 31.8744 50.2315C33.5391 50.1877 35.2038 50.1439 36.9123 50.1C38.7523 50.0562 40.6798 50.0124 42.3884 50.6258C42.6074 50.4505 43.0893 50.5819 43.2645 50.801C43.3959 51.02 43.4398 51.3267 43.4836 51.6333C43.5712 52.2905 43.8778 52.9476 44.1407 53.5609C44.4473 54.2618 44.7978 54.9628 45.2797 55.5761C45.8054 56.1456 46.5501 56.5837 47.2949 56.5399C47.9082 55.1818 48.3025 54.0428 48.171 52.5533C47.9958 50.6696 47.952 49.0925 47.5577 47.2525C47.5139 46.9897 47.3825 46.8144 47.3825 46.5078C47.3825 46.3764 47.3387 46.2011 47.2511 46.1573C47.1635 46.1135 47.0758 46.1135 46.9444 46.1135C45.6302 46.2887 44.3597 46.5078 43.0455 46.8144C42.5636 46.9459 41.9941 47.0335 41.556 46.8144C40.3294 46.2011 38.9713 46.1135 37.6571 45.6316C37.438 45.544 37.219 45.4564 36.9999 45.3688C36.7371 45.2373 36.5181 45.1059 36.299 44.9307C35.4667 44.4488 34.5467 44.2297 33.6267 44.0107C32.7943 43.8355 31.8744 43.9669 31.2173 44.5364C31.4363 44.1421 31.6553 43.7479 31.9182 43.3974C32.181 43.0907 32.4877 42.8717 32.7505 42.6088C34.4153 41.2508 36.08 39.8051 37.3942 38.0966C38.7085 36.3881 39.7599 34.3729 40.0227 32.2263C40.3294 29.9921 39.3218 28.0207 38.358 26.0055C37.6133 24.4722 39.1904 22.9389 40.636 22.019C42.2569 20.9676 42.8702 18.9962 43.3959 17.1562C43.4836 16.8058 43.5274 16.4115 43.5274 16.0172C44.4912 16.4991 45.5864 16.7182 46.6378 16.6305C47.032 16.5867 47.4263 16.4991 47.7768 16.2801C48.3901 15.842 48.6091 15.0534 48.6091 14.2649C48.6967 11.2859 46.6378 8.74505 45.893 5.85371C45.8054 5.45943 45.7178 5.06517 45.7616 4.67089C45.8054 4.27662 46.0244 3.88234 46.1997 3.53188C46.4625 3.22522 46.6816 2.52428 46.9882 1.95478Z" fill="white"/>
</g>
</svg>
