<svg width="72" height="73" viewBox="0 0 72 73" fill="none" xmlns="http://www.w3.org/2000/svg">
<g id="T_emotes16" opacity="0.5">
<path id="Vector" d="M21.5815 20.4576C21.5299 19.0636 21.4783 17.6179 21.4783 16.2239C21.4783 15.9657 21.4783 15.656 21.5815 15.3978C21.6848 15.1397 21.8397 14.9331 21.9946 14.7783C22.5625 14.1071 23.2337 13.3842 24.0598 13.0745C24.0082 13.0745 24.2663 12.9195 24.2663 12.9195C24.4728 12.5065 24.5761 12.3 24.9891 12.0419C25.712 11.6288 26.6929 11.5255 27.106 10.8027C27.4157 10.2864 27.2609 9.61521 27.106 9.04727C26.7962 7.91141 26.5381 6.67229 26.3832 5.53642C26.2283 4.34892 26.0734 3.05818 26.6929 1.97395C27.3125 0.941341 28.5 0.373396 29.7391 0.218505C30.8234 0.115244 31.9592 0.321753 32.7336 1.04458C33.0951 1.40599 33.3533 1.87066 33.5598 2.33533C34.3859 4.24566 34.7472 6.36251 34.5407 8.47935C35.5733 8.58261 36.6059 8.63424 37.6385 8.7375C37.9999 8.78913 38.3614 8.78913 38.7228 8.7375C39.0842 8.68587 39.4972 8.531 39.8587 8.42773C40.9945 8.11795 42.2336 8.2212 43.2662 8.7375C46.0026 8.01468 48.3777 9.66684 50.9075 10.9576C52.3532 11.7321 54.4184 12.0935 54.8314 13.694C54.9347 14.2103 54.6249 14.7266 54.1602 14.9848C53.7472 15.2429 45.5896 15.3978 45.1249 15.1913C44.6602 14.9331 43.163 14.7782 42.7499 14.4685C41.3559 13.3326 47.1385 12.8679 45.3314 12.9195C43.2146 12.9712 41.769 14.1587 40.0652 12.9195C41.2527 16.6886 42.5434 19.4766 42.3885 23.4005C42.2853 26.2402 41.4592 29.2347 42.5434 31.8679C43.163 33.3651 44.4021 34.6043 45.1249 36.0499C45.538 36.8244 46.3641 37.5989 46.8287 38.3733C47.3967 39.3027 47.913 40.2836 48.326 41.3162C48.9972 42.9684 49.2554 44.7238 49.1521 46.4792C49.8749 46.8923 50.1331 47.8733 50.5978 48.5444C51.6304 50.145 53.5923 50.8162 54.7798 52.2618C55.451 53.0879 55.864 54.1721 55.864 55.2564C57.1032 56.9086 57.9809 58.9221 58.3423 60.9357C58.807 63.5689 60.5624 66.1504 62.4211 68.0607C62.6792 68.3189 62.8342 68.7319 62.7309 69.0933C62.576 69.6096 62.008 69.6613 61.5434 69.6613C60.7173 69.6613 59.7879 69.558 59.0651 69.1966C58.2906 68.7835 57.7227 68.0091 57.2064 67.2863C56.5869 66.4086 55.9156 65.5308 55.7091 64.4466C55.6059 63.9303 55.6059 63.414 55.5027 62.8977C55.2961 61.6586 54.7281 60.5227 53.9021 59.645C52.3532 57.9928 49.7717 57.0635 49.1005 54.895C48.326 54.2754 47.5516 53.5526 47.2418 52.5716C46.932 51.5907 46.4157 50.7129 45.6929 50.0417C43.9375 48.4412 42.1304 46.6341 41.3559 44.3624C40.9429 43.0716 40.788 41.6776 39.9619 40.645C39.7554 41.1613 39.1358 41.626 38.6195 41.8325C38.1548 42.039 37.5869 42.0907 37.0706 42.1423C36.9157 42.3488 36.5027 42.5037 36.3478 42.6586C36.1412 42.8651 36.038 43.2266 35.9864 43.5363C35.5217 45.963 34.644 48.2863 33.4565 50.4032C33.5081 51.3841 33.3016 52.4167 33.2499 53.3977C33.2499 54.0173 33.1984 54.6368 32.8369 55.1531C33.5081 56.7537 33.4565 58.6124 32.8369 60.2129C32.269 61.7618 32.4755 63.4656 32.1141 65.1178C31.856 66.3569 32.0625 67.6477 31.8043 68.8868C31.6494 69.5064 31.4429 70.1259 31.1847 70.6939C30.875 71.3134 30.4103 71.9846 29.6875 72.1395C29.1195 72.2944 28.5 72.0879 27.9837 71.8813C27.6223 71.7265 27.2609 71.4683 27.2092 71.1069C27.1576 70.9004 27.2609 70.6939 27.3125 70.539C27.7255 69.4031 28.2935 68.3705 28.913 67.3379C29.1712 66.8732 29.2228 66.3053 29.0163 65.789C28.4484 64.4982 28.6032 63.7238 28.5 62.5879C28.3451 60.4711 28.6033 58.4058 28.6033 56.289C28.6033 54.8433 28.0353 53.501 28.2935 52.0553C28.5516 50.3515 27.4674 48.3896 27.6739 46.6858C27.7255 46.2727 27.8288 45.9113 27.8804 45.4983C27.9837 45.0336 28.087 44.5173 28.1902 44.0526C28.5516 42.4005 27.9321 40.9032 28.5 39.3026C29.0679 37.7021 29.8424 36.2565 30.6684 34.7592C31.7527 32.7456 30.307 30.4222 29.6875 28.2021C29.0679 25.982 27.8804 23.8652 25.9701 22.5228C26.1766 23.2456 26.125 23.9684 25.7636 24.6396C25.4022 25.3108 24.8859 25.9304 24.3696 26.4983C24.2147 26.7049 24.4212 28.5635 24.3696 28.9249C24.3179 29.6994 23.9565 30.3706 23.9049 31.1451C23.6984 32.9005 24.4212 34.6559 25.144 36.2048C25.2989 36.463 25.4022 36.7727 25.5571 37.0309C26.0734 37.857 26.7445 38.6314 27.519 39.1994C27.519 39.5092 27.8804 39.5092 27.7772 39.8189C27.7255 40.0255 27.4158 40.1287 27.2092 40.0771C27.0027 40.0255 26.7962 39.819 26.6413 39.6641C26.125 39.1478 25.6603 38.6315 25.144 38.1152C25.0408 39.0445 25.3505 39.8706 25.7636 40.6967C26.125 41.3679 26.6413 41.9358 26.6929 42.7102C26.6929 42.8135 26.6929 42.9684 26.6413 43.02C26.4864 43.1749 26.2283 42.9684 26.125 42.8135C24.9891 41.2646 23.9565 39.6124 23.0272 37.9086C22.6141 37.1342 22.2527 36.3597 21.8913 35.5336C21.4266 34.6043 21.0136 33.6233 20.6006 32.6423C20.2391 31.7646 19.981 30.8869 19.8777 29.9575C19.7228 28.77 19.7745 27.8407 19.7228 26.6532C19.7228 25.982 19.7228 25.2076 20.2391 24.7429C20.394 24.2266 20.4457 24.0717 20.7038 23.607C21.375 22.4195 21.6331 21.7483 21.5815 20.4576Z" fill="white"/>
</g>
</svg>
