<svg width="72" height="73" viewBox="0 0 72 73" fill="none" xmlns="http://www.w3.org/2000/svg">
<g id="T_emotes8" opacity="0.5">
<path id="Vector" d="M10.8827 27.629C11.4123 26.7021 12.6041 26.4814 13.4868 25.8635C14.1047 25.4221 14.5461 24.7159 15.1199 24.1863C15.8703 23.5242 16.8413 23.127 17.6358 22.509C18.5185 21.847 19.2247 20.9642 20.0634 20.258C20.902 19.5518 22.0054 19.0221 23.0647 19.2428C23.5503 18.8897 24.1682 18.4483 24.6096 18.0511C24.9185 17.7863 25.1834 17.4773 25.4923 17.1683C25.7572 16.8594 26.0661 16.5504 26.331 16.2856C26.9047 15.6676 27.5227 15.0497 28.0523 14.4318C27.8316 12.8428 28.4054 11.4304 29.6413 10.4152C30.8772 9.40007 32.5544 9.04696 34.1433 9.22352C35.5558 9.40007 36.7475 8.60558 38.1599 8.738C38.513 8.78214 38.4247 8.29662 38.4247 7.94352C38.3806 6.92834 38.3364 5.91317 38.3364 4.898C38.3364 4.45662 38.2923 4.01524 38.4247 3.57386C38.7778 2.24973 40.2344 1.54352 41.5585 1.14628C42.353 0.92559 43.2358 0.749038 44.0302 1.01386C44.2951 1.10214 44.5599 1.23456 44.8247 1.41111C45.5751 1.85249 46.3696 2.338 46.7668 3.13248C47.164 3.92697 47.1199 4.898 47.0316 5.78076C46.8992 7.41386 46.7668 9.13524 46.193 10.6801C46.9434 11.5628 47.7378 12.578 48.753 13.1518C49.8564 13.8139 51.1806 14.1228 52.0633 15.0056C52.6813 15.6676 53.0344 16.5504 53.1668 17.4332C53.2992 18.3159 53.2109 19.2428 53.1668 20.1256C53.0344 21.7587 54.7558 22.818 55.3737 24.3628C56.124 26.1725 57.0509 27.8497 57.3599 29.7918C57.6689 31.778 58.7723 33.72 59.0813 35.7504C59.1695 36.4125 59.2137 37.0745 59.0371 37.7366C58.7282 38.84 57.5364 39.5463 56.5213 39.6345C56.0799 39.6787 55.1088 39.8111 54.7557 39.5021C54.3144 39.149 54.4027 38.0456 54.4909 37.5159C54.6675 36.1035 55.6827 35.1766 55.6827 33.6759C55.6827 32.4401 55.2854 31.2483 54.7999 30.1449C53.4316 27.0552 51.0482 24.2745 48.3558 22.2883C48.2675 22.2442 48.1792 22.1559 48.0909 22.1118C47.6937 23.5683 46.8109 24.8483 45.6192 25.8194C45.222 26.1283 44.8689 26.8787 44.604 27.2759C44.3833 27.5849 44.2068 27.938 43.9861 28.2469C43.3682 29.218 42.7944 30.1449 42.0882 31.0718C41.6468 31.6897 41.2496 32.5725 40.8082 33.1904C40.4551 33.6759 40.0578 34.2056 40.1902 34.7794C40.4109 35.7504 40.6316 36.589 41.2496 37.2952C42.1765 38.3545 43.1034 39.4138 43.5447 40.738C44.1627 42.5918 43.5889 44.7987 43.5447 46.6966C43.5006 47.4911 44.4716 48.1531 44.913 48.8152C45.5309 49.7862 45.5309 51.0662 45.3985 52.2138C45.2661 53.3614 44.9571 54.509 44.9571 55.6566C45.0013 58.3931 44.5599 60.909 44.3833 63.6455C44.2951 65.2345 44.2068 66.9118 44.9571 68.3242C45.3102 69.0304 45.8399 69.6042 46.1489 70.3545C46.4578 71.1048 46.4137 72.0317 45.7958 72.5173C45.7516 72.4731 45.5751 72.6497 45.5751 72.6938C45.5751 72.7379 45.4868 72.7821 45.4427 72.7821C44.0744 73.1352 42.5295 72.5173 41.7351 71.3255C41.7792 70.3986 41.3378 69.6483 40.8082 68.898C40.764 68.1035 40.5875 67.3531 40.5433 66.5145C40.4551 64.8373 40.9847 63.2924 41.3378 61.6152C41.5144 60.7766 41.1172 60.2469 41.1172 59.4083C41.1172 58.9228 41.1171 58.4373 40.9406 57.9518C40.764 57.5104 40.4551 57.1573 40.1902 56.8042C39.6606 55.9214 39.5282 54.818 39.8371 53.8469C40.0137 53.3173 40.1902 52.6993 40.102 52.1256C40.0578 51.9049 40.1461 51.6842 40.1461 51.4635C40.1461 51.0221 39.8813 50.6249 39.5723 50.3159C38.1599 48.6387 36.4827 47.0938 35.7323 45.0194C35.1144 43.3421 34.7613 41.709 35.1144 39.9435C35.1585 39.7669 34.9378 39.5904 34.7613 39.5021C34.5847 39.3697 34.364 39.4138 34.2316 39.5021C34.4523 40.5614 34.2316 41.6207 34.2316 42.68C34.1875 44.0925 34.0992 45.858 33.7902 47.2262C33.6578 47.9325 33.7461 48.6387 33.6578 49.3449C33.9668 49.389 34.1434 49.698 34.2758 50.0069C34.7613 50.978 34.9378 52.1256 34.7172 53.229C34.4965 54.3766 34.8937 55.8773 34.8496 57.069C34.8054 57.5104 34.7613 57.9518 34.4965 58.3049C33.8785 59.1435 34.0109 60.5118 34.0551 61.5711C34.0992 63.2042 34.0551 64.9697 34.1433 66.6028C34.2316 68.2359 34.2316 69.9131 33.5696 71.4138C33.4813 71.6345 33.393 71.8111 33.1723 71.9435C32.9958 72.0759 32.7309 72.12 32.5103 72.12C31.6716 72.1642 30.833 71.9876 30.0827 71.6786C29.9503 71.6345 29.8178 71.5462 29.6854 71.4579C29.3765 71.0607 29.7737 70.5311 29.8178 70.0455C30.3916 69.2511 30.6565 68.5007 31.0978 67.618C31.804 66.1173 31.0537 64.5283 31.142 62.8952C31.142 62.4538 30.7447 62.2773 30.6123 61.88C30.1709 60.5559 29.6854 59.2318 29.244 57.9076C28.7585 56.5393 29.0675 54.818 29.2882 53.4056C29.4647 52.3904 29.5089 51.2869 29.5089 50.2718C29.4647 48.9918 29.0234 48.0207 28.3172 46.9614C27.3461 45.549 26.5075 44.0925 26.3751 42.3711C26.1985 39.9876 26.4634 37.8249 26.5958 35.4414C26.684 34.1614 26.5958 32.8814 27.5227 32.0428C27.6109 30.9835 27.8758 30.0125 28.3613 29.0856C28.6703 28.4676 29.0675 27.8938 29.4647 27.3642C29.9061 26.7463 29.9944 25.9518 30.1268 25.2014C30.3916 24.0097 30.4358 22.7297 30.4358 21.4938C30.4358 20.6552 30.4799 19.8166 30.4799 18.978C30.3475 19.6401 29.553 20.0814 29.0234 20.4787C27.8316 21.4056 26.4634 22.1118 25.0509 22.5532C23.9034 22.9063 22.8441 23.9214 21.6965 24.2745C21.3434 24.4069 20.9461 24.4511 20.593 24.5394C18.9158 24.8925 17.3268 25.7311 16.0468 26.9228C15.5613 27.3642 15.6054 27.9821 15.5172 28.6442C15.2965 29.8801 14.5461 31.0276 13.4868 31.7338C13.0454 31.9987 12.2951 31.8221 11.942 31.469C11.7654 31.3366 11.633 31.1159 11.5006 30.9394C10.7503 30.0566 11.0151 28.7766 10.8827 27.629Z" fill="white"/>
</g>
</svg>
