<svg width="72" height="73" viewBox="0 0 72 73" fill="none" xmlns="http://www.w3.org/2000/svg">
<g id="T_Emotes-1">
<path id="Vector" d="M22.3136 22.0347C21.9046 21.1259 21.2685 20.5352 20.5869 19.8082C19.2238 18.3088 19.1783 15.7643 20.496 14.2194C21.0413 13.5832 21.8138 13.0834 22.5408 12.629C23.495 12.0383 24.4037 11.4931 25.3579 10.9024C25.6305 10.3117 25.7669 9.53925 25.8577 8.85768C25.9032 8.44874 25.9486 8.0398 25.9486 7.63086C25.9032 6.17684 24.9035 4.26845 25.7214 3.04162C26.9028 1.31498 29.2656 0.542533 31.2194 1.26954C32.9915 1.90567 34.2638 3.63231 34.5364 5.49527C34.7636 7.35823 34.082 9.26662 32.7643 10.6752C33.9003 10.5389 35.1725 10.448 36.1721 11.0387C36.5357 11.2659 36.8992 11.584 37.1718 11.902C38.444 13.2197 39.5346 14.7192 40.0344 16.4913C41.1703 16.2186 41.761 15.3099 42.6243 14.492C44.2601 12.9017 46.5774 11.8111 48.8039 12.3564C48.9402 12.4018 49.122 12.4473 49.2128 12.5836C49.44 12.8562 49.2128 13.2652 48.9402 13.5378C47.4862 15.1281 45.4869 16.0823 43.7603 17.4C42.7152 18.2179 41.7156 19.263 41.1249 20.4444C38.2623 23.307 35.0362 25.8969 31.5829 28.0325C30.9922 28.396 30.447 28.7141 29.8108 28.9413C29.2656 28.8958 28.6294 28.805 28.3114 28.396C28.1751 28.2143 28.0842 27.9871 27.9479 27.8053C27.7207 27.5327 27.4026 27.3509 27.0846 27.1692C24.9944 26.0332 23.3132 24.2157 22.3136 22.0347Z" fill="white"/>
<path id="Vector_2" d="M52.3936 52.2051C52.2572 52.9321 51.9392 53.6137 51.5757 54.2498C50.3943 56.4309 49.2583 58.6119 48.077 60.7929C47.3499 62.1106 46.6229 63.5646 46.6684 65.0641C46.7138 66.3363 47.2591 67.5177 48.0315 68.4719C48.804 69.4716 49.7582 70.2894 50.7124 71.1073C51.0759 71.4254 50.8941 71.8798 50.5306 72.1978C50.1671 72.5159 49.7127 72.6522 49.2583 72.7431C48.9403 72.834 48.6222 72.8794 48.3041 72.8794C48.0315 72.8794 47.7589 72.7885 47.4863 72.6522C45.6233 71.9706 43.8967 70.8801 42.3972 69.5624C42.3972 67.654 42.6244 65.9728 43.1242 64.1099C43.5332 62.5195 43.8967 60.9747 44.3056 59.3843C44.76 57.6122 44.1693 55.9765 44.6691 54.2498C44.8963 53.3411 45.3961 52.5686 45.8959 51.7962C46.6684 50.5239 44.8963 49.2971 44.0784 48.0703C42.5335 45.8438 41.1249 43.481 39.8981 41.0728C39.3529 40.9819 38.7622 41.0728 38.1715 41.1183C38.7167 42.3905 38.3532 43.8445 37.9897 45.1622C37.1264 48.252 36.2176 51.3872 34.7636 54.2498C35.1271 54.5679 35.0817 55.204 35.0817 55.7038C35.0363 57.2942 33.8549 58.7028 32.4009 59.3843C32.4917 60.2022 31.5375 60.702 30.9468 61.3382C29.5837 62.8831 29.3111 65.0641 29.3565 67.1088C29.3565 68.0175 29.402 68.9263 29.1293 69.7896C28.7658 70.8801 27.9025 71.7435 26.812 72.0615C25.9032 72.3341 24.8582 72.3342 23.904 72.2433C23.7676 72.2433 23.6313 72.1978 23.5405 72.107C23.4496 72.0161 23.4041 71.8798 23.4041 71.7889C23.3587 71.2891 23.4041 70.7893 23.6313 70.3349C23.8131 69.9259 24.1311 69.6079 24.3583 69.2444C24.7218 68.7445 25.0399 68.1539 25.2217 67.5632C25.4034 66.9725 25.7215 66.6544 25.8124 66.0183C25.9032 65.2913 25.5397 64.746 25.6306 64.019C25.7215 63.292 25.9941 62.565 26.6302 62.2015C26.7211 60.5657 26.812 58.9754 27.2209 57.3851C27.5844 56.1128 28.0843 55.4767 28.9021 54.5225C29.2656 54.1135 29.402 53.5683 29.5837 53.023C29.7655 52.3869 29.9472 51.7507 29.9472 51.0692C29.9472 49.6152 29.1293 48.1611 29.402 46.7526C30.0835 43.163 29.72 39.3007 30.9923 35.8474C31.8102 33.6664 30.4016 31.6217 29.9926 29.3498C30.6742 29.1226 31.3103 28.7591 31.8556 28.3956C35.0817 26.3509 38.126 23.9881 40.8978 21.3073C40.8069 21.7617 40.7614 22.1706 40.8069 22.6704C40.8523 23.1248 40.9886 23.6246 41.0795 24.079C41.5793 25.942 42.0791 27.7595 42.579 29.6224C42.8062 30.4858 43.2605 31.3037 43.8967 31.9398C44.5328 32.5759 45.2598 33.0303 45.9414 33.621C48.3041 35.7566 49.3038 38.9827 50.1671 42.027C50.8487 44.3898 51.0759 46.8434 51.9392 49.1608C52.2118 50.1604 52.5753 51.2055 52.3936 52.2051Z" fill="white"/>
</g>
</svg>
