<svg width="72" height="73" viewBox="0 0 72 73" fill="none" xmlns="http://www.w3.org/2000/svg">
<g id="T_emotes9" opacity="0.5">
<path id="Vector" d="M46.9882 1.95475C46.9444 1.38524 46.4187 0.947163 45.893 0.728121C45.3235 0.552888 44.754 0.596691 44.1845 0.640499C44.0093 0.640499 43.8778 0.684313 43.7464 0.728121C43.5712 0.815738 43.4836 0.990971 43.4398 1.1662C43.0017 2.26141 42.9579 3.44423 42.8702 4.58324C42.7826 5.9413 42.695 7.29936 42.6512 8.61361C41.9065 8.39457 40.9865 8.43838 40.2418 8.65742C40.4608 7.25555 40.5484 6.02892 40.4608 4.62705C40.417 3.61946 40.2418 2.56806 39.497 1.91094C38.6208 1.1662 37.3066 1.34143 36.1676 1.56048C35.8609 1.60428 35.5105 1.69191 35.2476 1.86714C34.9848 2.08618 34.8533 2.43665 34.7219 2.7433C33.9772 4.93372 33.7143 7.25554 33.9772 9.57738C34.021 10.0155 34.1086 10.4535 33.9772 10.8916C33.7143 11.7678 32.7067 12.2059 31.9182 12.6878C29.9906 13.8268 28.6764 16.0172 28.5888 18.2514C28.4135 22.5008 28.4135 26.7064 28.8078 30.9558C28.4573 31.2625 28.4573 31.6129 28.2383 32.0072C26.6612 34.8986 26.1355 38.2718 25.6536 41.5136C25.4346 42.8279 24.9527 44.0545 24.4708 45.3249C24.3394 45.7192 24.1641 46.1135 24.1641 46.5077C24.1641 47.4277 24.8212 48.2163 25.4784 48.8734C25.6974 49.9248 26.5736 50.5819 27.1869 51.4581C27.8002 52.378 28.2383 53.4294 28.4573 54.4808C28.7202 55.8827 30.1659 57.0217 30.5601 58.4236C30.9982 59.9131 30.8668 61.534 31.3049 63.0234C31.962 63.4615 32.2248 64.9072 32.181 65.6958C32.1372 66.5281 32.1372 67.4043 31.7868 68.149C31.5677 68.5871 31.2611 69.0252 30.9982 69.4195C30.4287 70.2956 30.0782 71.3032 29.9906 72.3108C30.5163 72.7051 31.3049 72.6613 31.9182 72.3984C32.5315 72.1356 33.0572 71.6537 33.5391 71.2156C34.5905 70.2518 35.6419 69.2442 36.6933 68.2804C37.1752 67.7985 37.7009 67.3605 38.0513 66.7471C38.4018 66.1338 38.6208 65.4767 38.4456 64.8196C38.0513 63.1987 36.2552 62.1473 34.941 61.1397C34.8971 60.0007 34.7657 58.7741 34.7657 57.635C34.7219 56.3646 34.6781 55.0942 34.3714 53.8675C34.0648 52.6409 33.3639 51.4581 32.3125 50.7571C32.1372 50.6257 32.0058 50.4067 31.8744 50.2314C33.5391 50.1876 35.2038 50.1438 36.9123 50.1C38.7523 50.0562 40.6798 50.0124 42.3884 50.6257C42.6074 50.4505 43.0893 50.5819 43.2645 50.801C43.3959 51.02 43.4398 51.3266 43.4836 51.6333C43.5712 52.2904 43.8778 52.9476 44.1407 53.5609C44.4473 54.2618 44.7978 54.9627 45.2797 55.576C45.8054 56.1456 46.5501 56.5836 47.2949 56.5398C47.9082 55.1818 48.3025 54.0428 48.171 52.5533C47.9958 50.6695 47.952 49.0924 47.5577 47.2525C47.5139 46.9896 47.3825 46.8144 47.3825 46.5077C47.3825 46.3763 47.3387 46.2011 47.2511 46.1573C47.1635 46.1135 47.0758 46.1135 46.9444 46.1135C45.6302 46.2887 44.3597 46.5077 43.0455 46.8144C42.5636 46.9458 41.9941 47.0334 41.556 46.8144C40.3294 46.2011 38.9713 46.1135 37.6571 45.6316C37.438 45.544 37.219 45.4563 36.9999 45.3687C36.7371 45.2373 36.5181 45.1059 36.299 44.9306C35.4667 44.4488 34.5467 44.2297 33.6267 44.0107C32.7943 43.8354 31.8744 43.9669 31.2173 44.5364C31.4363 44.1421 31.6553 43.7478 31.9182 43.3974C32.181 43.0907 32.4877 42.8717 32.7505 42.6088C34.4153 41.2508 36.08 39.8051 37.3942 38.0966C38.7085 36.388 39.7599 34.3729 40.0227 32.2263C40.3294 29.992 39.3218 28.0207 38.358 26.0055C37.6133 24.4722 39.1904 22.9389 40.636 22.0189C42.2569 20.9675 42.8702 18.9962 43.3959 17.1562C43.4836 16.8058 43.5274 16.4115 43.5274 16.0172C44.4912 16.4991 45.5864 16.7181 46.6378 16.6305C47.032 16.5867 47.4263 16.4991 47.7768 16.2801C48.3901 15.842 48.6091 15.0534 48.6091 14.2649C48.6967 11.2859 46.6378 8.74502 45.893 5.85368C45.8054 5.4594 45.7178 5.06514 45.7616 4.67086C45.8054 4.27659 46.0244 3.88231 46.1997 3.53185C46.4625 3.22519 46.6816 2.52425 46.9882 1.95475Z" fill="white"/>
</g>
</svg>
