<svg width="72" height="73" viewBox="0 0 72 73" fill="none" xmlns="http://www.w3.org/2000/svg">
<g id="T_emotes11" opacity="0.5">
<path id="Vector" d="M57.4907 70.3498C56.9185 69.6735 56.1902 69.1533 55.5659 68.529C54.9416 67.9047 54.6295 66.8643 54.6295 65.9799C54.5774 64.2111 54.4214 62.4423 54.1092 60.7255C53.8491 59.3209 53.641 57.8123 53.7451 56.3556C53.9011 54.5348 53.537 52.5579 52.8087 50.8932C53.2248 48.8123 51.7162 46.9394 50.6237 45.1186C49.9994 44.0261 49.4792 42.8816 48.9589 41.7371C48.6988 41.1648 48.4387 40.5406 48.3347 39.9163C48.2306 39.344 48.2826 38.7718 48.3347 38.2515C48.4387 37.2111 48.6468 36.0146 48.8549 35.0261C50.1034 34.0897 50.9358 32.7371 51.6641 31.3845C51.9243 30.9683 52.1324 30.5521 52.2884 30.0839C52.4965 29.4076 52.1844 28.7313 52.2884 28.003C52.4965 26.5984 52.6006 25.0377 52.2884 23.633C51.5081 23.0088 50.9358 22.1764 50.3636 21.344C49.6352 20.2515 48.8549 19.003 48.1786 17.9625C48.1266 16.766 47.8665 15.5695 47.5023 14.477C47.3462 13.9568 47.0861 13.4365 46.7219 13.0724C46.3058 12.6041 45.6815 12.292 45.0572 12.0839C44.537 11.8758 44.0688 11.8238 43.4965 11.6157C43.1844 11.1475 42.7162 10.7313 42.1959 10.5232C41.7277 10.3151 41.2595 10.2631 40.7913 10.107C40.011 9.79489 39.4907 9.22265 39.2826 8.39028C38.9185 7.0897 39.4387 5.68507 39.5948 4.38449C39.6988 3.55212 39.2826 2.82378 38.8144 2.09546C38.4503 1.57523 38.0861 1.00299 37.4618 0.74287C37.0977 0.586801 36.6295 0.586807 36.2133 0.586807C34.9127 0.586807 33.404 0.638824 32.4676 1.52322C31.3231 2.56368 31.2711 4.38449 31.3751 5.94518C31.4271 6.8816 31.3231 8.02611 30.6988 8.80645C30.3347 8.85848 30.0225 9.3787 29.6584 9.48275C28.93 9.74286 28.2017 10.003 27.4734 10.2631C27.1612 10.3671 26.8491 10.4712 26.537 10.6273C25.4965 11.1475 24.6641 11.9799 23.8318 12.8122C23.6237 13.0203 23.6757 13.0724 23.6237 13.3325C23.5196 13.9567 23.3636 14.529 23.4156 15.1533C23.4676 16.2978 24.6121 17.3903 24.0399 18.4307C23.2595 19.8354 22.7913 21.4481 21.6468 22.5406C21.1786 22.9568 21.0225 23.6331 20.9705 24.2573C20.7624 25.6099 21.1786 27.0146 21.2306 28.4192C21.2826 30.5001 22.5832 32.2689 23.6237 34.0377C23.8318 34.3498 24.1439 34.714 24.1439 35.0781C23.5196 36.0666 22.8954 37.055 22.2711 37.9914C21.7508 38.8238 21.2306 39.6562 21.1266 40.6446C21.0225 41.6851 20.7624 42.2053 20.1902 43.0377C19.6699 43.818 18.9936 44.4943 18.4734 45.2747C17.9532 46.055 17.7971 46.9394 17.693 47.8758C17.589 49.4365 17.1208 51.2573 18.0572 52.5059C19.0456 53.8065 18.8376 55.4712 19.2017 57.0839C19.5139 58.3845 19.0977 59.6851 19.5139 60.9336C19.7219 61.662 19.5659 62.4423 19.2537 63.1186C18.8896 63.7949 18.3693 64.3151 17.7971 64.8354C17.693 64.9394 17.693 64.9914 17.537 64.9394C16.4445 65.5117 15.456 66.24 14.5717 67.0724C14.3115 67.3325 14.4156 67.6446 14.3115 68.0088C14.1555 68.529 14.5196 69.1012 15.0399 69.3093C15.5601 69.5174 16.3404 69.2573 16.8607 69.2053C17.641 68.3729 18.8376 67.9568 19.93 67.6966C21.0745 67.4365 22.2711 66.9683 23.3115 66.5001C23.9878 66.188 24.404 65.5117 24.5081 64.8354C24.6641 64.1591 24.5601 63.3787 24.5081 62.7024C24.404 61.9221 24.248 61.0377 24.352 60.2573C24.5081 58.5926 24.248 56.8238 23.7797 55.2111C24.3 54.4828 24.404 53.5463 24.352 52.6619C24.352 51.7775 24.1959 50.8932 24.3 50.0088C24.352 49.3845 24.404 48.344 24.8722 47.9799C26.537 46.6273 28.5659 45.7429 30.2306 44.3903C31.2711 43.5579 32.1034 42.5695 33.1439 41.7371C34.1323 40.9047 35.3289 40.1764 36.6295 40.0203C37.5139 39.9163 38.6063 40.2284 38.9185 41.0608C39.2306 41.8411 39.3867 42.5175 39.4907 43.3498C39.6988 44.5464 40.5832 45.2747 41.3636 46.2111C42.352 47.4596 43.4965 48.6041 44.7971 49.5406C45.8376 50.3209 47.8144 51.2053 47.5543 52.5059C47.3462 53.3903 47.2422 54.3267 47.3462 55.2111C47.5023 56.3556 48.0225 57.396 48.5428 58.3845C48.6468 58.5406 48.8549 58.5406 48.9589 58.6966C49.4792 59.6331 50.4156 60.4134 50.5717 61.5059C50.6757 62.3903 50.7277 63.0146 50.6237 63.899C50.3636 65.5637 50.3636 67.1764 50.5717 68.8412C51.5601 69.7255 52.5485 70.6619 53.485 71.5463C53.9011 71.9105 54.3693 72.3267 54.8896 72.4828C55.3578 72.6388 55.878 72.5868 56.3462 72.5348C56.8665 72.4828 57.4387 72.3787 57.6988 71.9625C58.115 71.4423 57.8549 70.766 57.4907 70.3498ZM28.6179 33.6735C28.2017 34.2978 27.3693 34.714 26.693 34.5579C26.3289 33.7255 26.4329 32.7371 26.3809 31.8007C26.2769 29.8238 25.3925 28.003 25.3404 26.0261C25.3404 25.1417 25.7566 24.3094 26.2248 23.581C26.3289 23.3729 26.4849 23.1649 26.693 23.0608C26.9011 22.9568 27.2133 22.9567 27.3173 23.1648C27.4214 23.3209 27.4214 23.529 27.4214 23.7371C27.4214 24.8816 27.9936 25.9741 28.3578 27.0666C28.878 28.5232 29.1381 30.0319 29.0341 31.5406C29.1381 32.2689 29.0341 33.0492 28.6179 33.6735ZM45.8376 31.4885C45.7855 32.0608 45.8376 32.6331 45.8376 33.2053C45.8376 33.7776 45.6815 34.4018 45.2653 34.766C44.7451 35.2342 43.9127 35.1822 43.2884 34.818C42.6641 34.5059 42.404 34.0377 41.9878 33.4654C41.8318 31.8527 41.7277 30.24 41.7277 28.6793C41.7277 28.1591 41.7277 27.6908 41.7797 27.1706C41.9878 25.4538 42.9243 23.9452 43.8086 22.4885C44.1208 23.2689 44.641 23.9972 45.2653 24.5174C46.2537 25.2978 47.1381 26.2862 47.1381 27.5348C47.1902 28.8874 46.0456 30.0839 45.8376 31.4885Z" fill="white"/>
</g>
</svg>
