<svg width="72" height="73" viewBox="0 0 72 73" fill="none" xmlns="http://www.w3.org/2000/svg">
<g id="T_emotes17" opacity="0.5">
<path id="Vector" d="M54.9158 24.6655C54.3727 23.8507 53.7208 23.3075 53.1776 22.4928C52.3085 21.2434 51.3308 20.1027 50.1358 19.1793C49.9728 19.0164 49.5926 19.0707 49.4296 18.9077C49.484 17.8757 49.484 16.8436 49.2667 15.8116C49.0494 14.7795 48.5062 13.8018 47.6371 13.2586C46.8767 12.7698 45.899 12.6068 45.0299 12.3352C43.5089 11.792 42.2596 10.6513 41.1189 9.56494C40.8473 9.29334 40.5214 9.02178 40.4671 8.64155C40.3585 8.31564 40.4671 7.9897 40.5214 7.66379C40.793 6.30583 40.956 4.94787 40.7387 3.58991C40.4671 2.23195 39.7066 0.928322 38.4573 0.385137C37.3709 -0.103729 36.2303 0.113532 35.0353 0.16785C33.1341 0.222169 31.3959 1.74308 31.07 3.58991C30.7984 5.0565 31.2873 6.74039 30.7441 8.15267C29.6577 7.82676 28.5171 7.71814 27.3764 7.82677C26.8875 7.88109 26.453 7.9354 26.0184 8.15267C25.3123 8.5329 24.8234 9.29336 24.2259 9.78222C23.2482 10.5427 21.9445 10.7599 20.6952 10.7599C19.4459 10.7599 18.1965 10.7056 17.0015 10.9772C16.0781 12.0636 15.6436 13.5302 15.9152 14.8882C16.0781 15.7029 16.404 16.4091 16.567 17.2239C16.7843 18.4732 16.5127 19.7768 16.7299 21.0805C16.7843 21.5693 16.9472 22.0582 17.3275 22.3841C17.8163 22.8187 18.5768 22.8187 19.2286 22.7643C20.5866 22.6014 21.9445 22.2755 23.1938 21.7866C23.3568 21.7323 23.5198 21.678 23.5741 21.515C23.6827 21.4064 23.6827 21.2434 23.6827 21.0805C23.6827 20.2657 23.4111 19.3966 22.9222 18.7448C22.2704 17.8757 21.2384 17.2238 21.0754 16.1918C21.0754 16.0832 21.0754 15.9745 21.1297 15.8659C21.2384 15.7573 21.4013 15.7029 21.5643 15.7029C23.1395 15.6486 24.7147 15.5943 26.2357 15.54C25.8011 17.5497 26.8332 19.5596 26.6702 21.5693C26.5616 22.9816 26.6702 24.4482 26.9961 25.8062C27.1591 26.6209 27.4307 27.3814 27.4307 28.1962C27.4307 28.9567 27.2677 29.7171 27.0504 30.4775C26.8875 31.1837 27.3764 31.8898 26.8875 32.433C25.9641 33.5737 24.4432 34.0626 23.3025 35.0403C21.8359 36.2896 21.4556 38.0278 21.184 39.929C20.0434 41.1783 18.957 42.4819 18.7397 44.1658C16.8929 46.5558 15.7522 50.7927 18.957 52.6395C20.315 53.4 21.9988 53.5086 23.5741 53.6172C25.1493 53.7259 26.7246 53.8888 28.2998 54.1604C28.8973 54.269 29.6034 54.432 29.875 54.9752C30.1466 55.627 29.712 56.3331 29.2232 56.822C27.8652 58.1256 26.0184 58.7775 24.4432 59.8638C24.2259 60.0268 24.0086 60.2441 23.9543 60.4613C23.9543 61.0045 24.6604 61.1132 25.1493 61.1132C28.68 60.8416 32.2107 60.3527 35.7414 59.6466C35.7414 59.4293 35.85 59.1034 35.7957 58.9404C35.6328 58.017 35.4698 57.0936 35.1982 56.2245C35.0352 55.5727 34.818 54.9752 34.3834 54.432C33.46 53.2913 31.7218 53.1284 30.6898 52.0963C29.9293 51.3902 29.6034 50.3581 29.0059 49.489C28.0825 48.2397 26.5073 47.5336 24.9863 47.6422C27.2677 46.2842 29.3861 44.2201 30.5811 41.8844C31.5045 41.7758 32.3737 41.2869 32.9169 40.5808C34.0032 42.8079 33.9489 45.0892 34.5464 47.4249C34.7094 48.1854 35.1982 48.9458 35.9044 49.3261C36.013 49.3804 36.1759 49.4347 36.2846 49.5433C36.4475 49.8149 36.5019 50.1952 36.4476 50.5211C36.2303 52.2593 36.9364 54.1061 38.3487 55.1924C38.7833 55.5184 39.2721 55.79 39.6523 56.2245C40.0326 56.6591 40.1955 57.2022 40.3585 57.7454C40.7387 58.7775 41.0646 59.8095 41.2819 60.8959C41.6078 62.6884 41.4992 64.5352 41.4992 66.3277C41.4448 67.9573 41.4992 69.5868 41.7708 71.1621C41.7708 71.325 41.8251 71.5423 41.9337 71.7053C42.0967 71.9769 42.4226 72.0312 42.7485 72.0312C43.8349 72.1398 44.9212 72.0312 45.9533 71.7596C46.1162 71.7053 46.2792 71.651 46.3878 71.5423C46.4965 71.4337 46.4965 71.2707 46.4965 71.1078C46.4422 70.13 45.7903 69.3696 45.3015 68.5005C44.704 67.3598 44.7039 66.1105 45.0842 64.8612C45.3558 63.9921 45.1928 63.0143 44.7039 62.1995C44.5953 62.0366 44.4867 61.928 44.378 61.765C44.1064 61.2218 44.378 60.3527 44.1064 59.8095C43.8349 59.2663 43.8349 58.6145 43.8349 58.017C43.8349 55.6813 43.6176 53.237 43.4546 50.9013C43.4003 50.0322 43.0744 49.2174 42.5855 48.5113C42.151 47.9138 41.2819 47.4792 41.3362 46.7731C41.4992 45.5781 41.1189 44.2744 40.5214 43.2424C41.4992 40.798 41.6078 38.1365 41.1189 35.5292C41.0103 35.0403 41.3362 34.5514 41.7164 34.2798C42.0423 34.0082 42.6399 33.791 42.8571 33.4651C43.183 32.9762 43.7805 32.7589 44.3237 32.6503C47.2026 31.8898 50.4074 31.4553 53.1233 30.2603C53.6665 29.9887 54.2097 29.7171 54.6985 29.3369C55.0788 29.0653 55.4047 28.7394 55.622 28.3048C55.7306 28.0332 55.7849 27.7616 55.7849 27.4357C55.8392 26.4037 55.459 25.4803 54.9158 24.6655ZM48.6692 25.9691C46.8224 27.49 44.9212 28.9566 42.9658 30.2603C42.3683 30.6405 41.4449 31.238 40.793 30.5862C40.0326 29.8257 40.9017 28.9023 41.3362 28.2505C42.6399 26.2407 43.8892 24.2309 45.1385 22.2212C45.6817 22.6557 45.8989 23.4162 46.3335 24.0137C46.931 24.8828 47.9087 25.4803 48.8865 25.5346C48.9951 25.6432 48.8322 25.8605 48.6692 25.9691Z" fill="white"/>
</g>
</svg>
