<svg width="34" height="73" viewBox="0 0 34 73" fill="none" xmlns="http://www.w3.org/2000/svg">
<path d="M3.03562 11.4342C1.97446 10.6256 1.16596 9.41287 0.862769 8.09904C0.761705 7.74532 0.761718 7.3916 0.812249 7.08841C0.913313 6.68416 1.21648 6.38097 1.51967 6.07778C2.27765 5.37033 3.18724 4.81449 4.19788 4.41024C5.15798 5.72406 5.81488 7.29055 6.11807 8.90757C6.37073 10.5246 6.32019 12.3942 7.43189 13.607C8.0888 12.5458 9.09945 11.6868 10.2617 11.1815C10.9691 10.8783 11.8282 10.6256 12.0303 9.86765C12.2324 9.10968 11.626 8.40225 11.1207 7.79587C10.2111 6.63364 9.65527 5.16821 9.60474 3.65226C9.55421 2.94482 9.65528 2.23738 10.0595 1.631C10.6154 0.873021 11.5755 0.56985 12.5356 0.418255C13.1925 0.317192 13.9505 0.266648 14.4558 0.721433C14.759 0.974091 14.9106 1.37834 15.0622 1.73207C15.7696 3.55121 16.4771 5.37035 16.6287 7.29055C18.6499 7.18949 20.6712 7.13895 22.6925 7.03789C24.2589 6.98736 26.1286 6.98735 27.1392 8.20011C27.6951 8.85702 27.8972 9.66553 28.0488 10.474C28.2509 11.3331 28.4531 12.1416 28.6552 13.0006C29.2616 13.0006 29.7669 13.607 30.1206 14.1123C30.7775 14.9714 31.485 15.8809 32.1419 16.74C32.7988 17.5485 33.4052 18.4075 33.7084 19.4181C33.9105 20.1256 33.9105 20.9341 33.9105 21.6921C33.9105 22.6522 33.9105 23.5617 33.8599 24.5218C33.8094 25.9873 33.5568 27.4022 33.6073 28.8676C33.6578 30.0298 33.6578 31.3436 32.8493 32.2027C32.1419 32.9606 30.9796 33.1122 29.9185 33.0617C29.5648 33.0617 29.1605 32.9606 28.9584 32.6574C28.8068 32.4553 28.8068 32.2027 28.8068 31.95C28.7562 30.9394 28.7057 29.8782 28.9078 28.8676C29.0594 28.1096 29.3121 27.4022 29.4637 26.6947C29.6153 25.9873 29.6153 25.2798 29.6153 24.5724C29.6153 23.6628 29.6658 22.7532 29.6658 21.8437C29.6658 21.2878 29.6658 20.7825 29.5142 20.2772C29.3626 19.8224 29.0089 19.4182 28.6552 19.0139C27.6446 17.8517 26.6339 16.74 25.6233 15.6283C26.5329 19.7213 23.4504 23.966 24.5621 27.958C25.0674 29.7772 25.977 31.6973 25.9265 33.6175C25.7749 38.317 25.3201 43.067 23.602 47.4127C22.7935 49.3834 24.5116 51.4552 24.9159 53.527C25.118 54.4871 25.118 55.4472 25.0674 56.4073C25.0674 57.3674 25.0674 58.3275 24.8148 59.2876C24.1073 61.9658 24.5116 64.5429 24.6127 67.3222C24.6632 68.2317 24.7137 69.0908 24.5116 69.9498C24.3095 70.8088 23.8042 71.6679 23.0462 72.0721C22.3893 72.3753 21.6818 72.3753 20.9744 72.3248C20.8228 72.3248 20.6712 72.3248 20.5701 72.2237C20.4185 72.1227 20.368 71.9205 20.3175 71.7689C20.1659 70.9604 20.1153 70.1519 20.2669 69.3434C20.4185 68.636 20.6712 67.9285 20.8228 67.2211C21.3281 65.3514 21.3281 63.3807 21.3281 61.4605C21.3281 60.6015 21.3281 59.6919 21.0249 58.8328C20.5196 57.2664 19.0036 55.9525 19.2058 54.285C19.3574 52.9712 18.5489 52.0111 18.2962 50.7478C18.1446 50.0403 17.993 49.2824 17.9425 48.5749C17.8919 47.7159 17.993 46.8063 18.0435 45.9473C18.2457 43.7744 18.1951 41.551 17.993 39.3276C18.1446 41.1468 17.892 43.0164 17.235 44.7345C16.8813 45.6441 16.477 46.5031 16.1739 47.4127C15.7696 48.7771 15.8202 50.1919 15.8202 51.5563C15.8202 52.9206 16.0728 54.1839 16.0728 55.5483C16.0728 56.5589 15.9717 57.6201 15.3654 58.4791C15.618 60.5509 15.6685 62.6227 15.9212 64.6945C15.9717 65.3514 16.0728 66.0083 16.0223 66.6653C15.9717 67.3727 15.8201 68.0801 15.517 68.7876C15.2138 69.495 14.759 70.2025 14.1526 70.6067C13.4957 71.0615 12.6367 71.2131 11.9292 70.9099C11.7776 70.8089 11.5755 70.7078 11.4744 70.5562C11.2218 70.2025 11.3734 69.6972 11.525 69.2929C12.5356 66.5137 12.9904 63.4312 12.2324 60.5509C11.7271 58.6307 10.7165 56.761 10.9186 54.7903C11.1207 53.1733 10.5143 51.7079 10.5143 50.0909C10.5143 45.6441 9.55422 41.3994 9.95847 36.9526C10.1101 35.083 10.6659 33.2638 11.5755 31.5963C13.1925 28.6654 12.485 25.3809 12.384 22.0458C12.7377 22.6522 11.9798 23.4101 11.2723 23.4607C9.80689 23.5617 8.69518 22.2985 7.78561 21.1362C7.58349 20.833 7.33083 20.5804 7.12871 20.2772C7.02764 20.1761 6.92656 20.0245 6.8255 19.9235C6.06752 18.9128 5.41063 17.8011 4.85478 16.6389C4.45053 15.1735 3.49041 13.0512 3.03562 11.4342Z" fill="white"/>
</svg>
